<svg xmlns="http://www.w3.org/2000/svg" viewBox="0 0 720 900" role="img" aria-labelledby="title desc">
  <title id="title">Julia Domna</title>
  <desc id="desc">Dark gallery poster preview for Julia Domna.</desc>
  <defs>
    <radialGradient id="halo" cx="50%" cy="28%" r="45%">
      <stop offset="0" stop-color="#C8924A" stop-opacity=".82"/>
      <stop offset=".36" stop-color="#C8924A" stop-opacity=".22"/>
      <stop offset="1" stop-color="#091019" stop-opacity="0"/>
    </radialGradient>
    <linearGradient id="figure" x1="0" y1="0" x2="1" y2="1">
      <stop offset="0" stop-color="#EDE7D8"/>
      <stop offset=".54" stop-color="#C8924A"/>
      <stop offset="1" stop-color="#EDE7D8" stop-opacity=".68"/>
    </linearGradient>
    <filter id="soft">
      <feGaussianBlur stdDeviation="14"/>
    </filter>
  </defs>
  <rect width="720" height="900" fill="#091019"/>
  <rect width="720" height="900" fill="#182843" opacity=".38"/>
  <path d="M131 0 L461 0 L591 900 L221 900 Z" fill="#C8924A" opacity=".16"/>
  <path d="M261 0 L411 0 L511 900 L321 900 Z" fill="#EDE7D8" opacity=".08"/>
  <path d="M0 706 C126 650 246 730 376 686 C504 644 560 598 720 642 L720 900 L0 900 Z" fill="#000" opacity=".24"/>
  <g transform="translate(221 191) rotate(0 120 260) scale(0.81)">
    <ellipse cx="118" cy="44" rx="42" ry="48" fill="url(#figure)"/>
    <path d="M80 98 C112 72 150 74 178 100 C170 174 158 234 178 314 C152 342 102 340 76 310 C94 235 88 170 80 98Z" fill="url(#figure)"/>
    <path d="M77 128 C38 166 20 230 34 296 C48 306 65 305 76 292 C68 236 84 194 110 154Z" fill="url(#figure)" opacity=".88"/>
    <path d="M174 124 C216 154 236 212 224 268 C210 278 194 276 184 263 C190 216 175 180 150 150Z" fill="url(#figure)" opacity=".76"/>
    <path d="M96 310 C74 390 70 470 48 558 C66 580 96 580 112 558 C126 474 142 398 132 318Z" fill="url(#figure)" opacity=".9"/>
    <path d="M154 314 C176 386 194 462 212 548 C198 572 166 574 150 550 C142 466 126 390 120 318Z" fill="url(#figure)" opacity=".86"/>
    <ellipse cx="130" cy="574" rx="112" ry="20" fill="#EDE7D8" opacity=".68"/>
  </g>
</svg>
